<svg xmlns="http://www.w3.org/2000/svg" version="1.1" xmlns:xlink="http://www.w3.org/1999/xlink" xmlns:svgjs="http://svgjs.dev/svgjs" viewBox="0 0 800 800"><defs><linearGradient x1="50%" y1="0%" x2="50%" y2="100%" id="ffflurry-grad" gradientTransform="rotate(270)"><stop stop-color="#ffffff" stop-opacity="1" offset="0%"></stop><stop stop-color="oklch(0.97 0 0);" stop-opacity="1" offset="45%"></stop><stop stop-color="oklch(0.97 0 0);" stop-opacity="1" offset="100%"></stop></linearGradient></defs><rect width="100%" height="100%" fill="#ffffff"></rect><g fill="oklch(0.97 0 0)"><rect width="414" height="5" x="-137" y="437.5" rx="2.5" transform="rotate(40, 70, 440)" opacity="0.81"></rect><rect width="226" height="5" x="646" y="693.5" rx="2.5" transform="rotate(40, 759, 696)" opacity="0.73"></rect><rect width="264" height="5" x="80" y="449.5" rx="2.5" transform="rotate(40, 212, 452)" opacity="0.69"></rect><rect width="152" height="5" x="324" y="124.5" rx="2.5" transform="rotate(40, 400, 127)" opacity="0.50"></rect><rect width="160" height="5" x="-6" y="300.5" rx="2.5" transform="rotate(40, 74, 303)" opacity="0.62"></rect><rect width="545" height="5" x="253.5" y="69.5" rx="2.5" transform="rotate(40, 526, 72)" opacity="0.99"></rect><rect width="309" height="5" x="276.5" y="318.5" rx="2.5" transform="rotate(40, 431, 321)" opacity="0.39"></rect><rect width="334" height="5" x="283" y="511.5" rx="2.5" transform="rotate(40, 450, 514)" opacity="0.86"></rect><rect width="207" height="5" x="653.5" y="766.5" rx="2.5" transform="rotate(40, 757, 769)" opacity="0.53"></rect><rect width="395" height="5" x="440.5" y="609.5" rx="2.5" transform="rotate(40, 638, 612)" opacity="0.88"></rect><rect width="545" height="5" x="429.5" y="87.5" rx="2.5" transform="rotate(40, 702, 90)" opacity="0.89"></rect><rect width="88" height="5" x="117" y="61.5" rx="2.5" transform="rotate(40, 161, 64)" opacity="0.76"></rect><rect width="522" height="5" x="-123" y="567.5" rx="2.5" transform="rotate(40, 138, 570)" opacity="0.14"></rect><rect width="454" height="5" x="515" y="462.5" rx="2.5" transform="rotate(40, 742, 465)" opacity="0.63"></rect><rect width="130" height="5" x="236" y="638.5" rx="2.5" transform="rotate(40, 301, 641)" opacity="0.66"></rect><rect width="447" height="5" x="158.5" y="231.5" rx="2.5" transform="rotate(40, 382, 234)" opacity="0.11"></rect><rect width="297" height="5" x="252.5" y="638.5" rx="2.5" transform="rotate(40, 401, 641)" opacity="0.41"></rect><rect width="122" height="5" x="443" y="593.5" rx="2.5" transform="rotate(40, 504, 596)" opacity="0.54"></rect><rect width="272" height="5" x="370" y="689.5" rx="2.5" transform="rotate(40, 506, 692)" opacity="0.67"></rect><rect width="231" height="5" x="-26.5" y="189.5" rx="2.5" transform="rotate(40, 89, 192)" opacity="0.62"></rect><rect width="162" height="5" x="598" y="745.5" rx="2.5" transform="rotate(40, 679, 748)" opacity="0.14"></rect><rect width="502" height="5" x="-202" y="68.5" rx="2.5" transform="rotate(40, 49, 71)" opacity="0.43"></rect><rect width="441" height="5" x="293.5" y="421.5" rx="2.5" transform="rotate(40, 514, 424)" opacity="0.53"></rect><rect width="110" height="5" x="687" y="602.5" rx="2.5" transform="rotate(40, 742, 605)" opacity="0.20"></rect><rect width="150" height="5" x="540" y="695.5" rx="2.5" transform="rotate(40, 615, 698)" opacity="0.33"></rect><rect width="56" height="5" x="531" y="765.5" rx="2.5" transform="rotate(40, 559, 768)" opacity="0.12"></rect><rect width="161" height="5" x="236.5" y="452.5" rx="2.5" transform="rotate(40, 317, 455)" opacity="0.24"></rect><rect width="276" height="5" x="217" y="31.5" rx="2.5" transform="rotate(40, 355, 34)" opacity="0.34"></rect><rect width="248" height="5" x="598" y="265.5" rx="2.5" transform="rotate(40, 722, 268)" opacity="0.66"></rect><rect width="310" height="5" x="188" y="545.5" rx="2.5" transform="rotate(40, 343, 548)" opacity="0.54"></rect><rect width="788" height="5" x="157" y="235.5" rx="2.5" transform="rotate(40, 551, 238)" opacity="0.97"></rect><rect width="631" height="5" x="-73.5" y="319.5" rx="2.5" transform="rotate(40, 242, 322)" opacity="0.40"></rect><rect width="200" height="5" x="304" y="751.5" rx="2.5" transform="rotate(40, 404, 754)" opacity="0.45"></rect><rect width="161" height="5" x="160.5" y="727.5" rx="2.5" transform="rotate(40, 241, 730)" opacity="0.85"></rect><rect width="248" height="5" x="274" y="399.5" rx="2.5" transform="rotate(40, 398, 402)" opacity="0.48"></rect><rect width="698" height="5" x="-271" y="703.5" rx="2.5" transform="rotate(40, 78, 706)" opacity="0.86"></rect><rect width="356" height="5" x="64" y="197.5" rx="2.5" transform="rotate(40, 242, 200)" opacity="0.61"></rect><rect width="69" height="5" x="229.5" y="84.5" rx="2.5" transform="rotate(40, 264, 87)" opacity="0.80"></rect><rect width="186" height="5" x="509" y="516.5" rx="2.5" transform="rotate(40, 602, 519)" opacity="0.62"></rect><rect width="353" height="5" x="455.5" y="384.5" rx="2.5" transform="rotate(40, 632, 387)" opacity="0.96"></rect></g></svg>
