<svg xmlns="http://www.w3.org/2000/svg" version="1.1" xmlns:xlink="http://www.w3.org/1999/xlink" xmlns:svgjs="http://svgjs.dev/svgjs" viewBox="0 0 800 800"><rect width="100%" height="100%" fill="#0a0a0a"></rect><g fill="#101010"><rect width="407" height="5" x="543.5" y="337.5" rx="2.5" transform="rotate(40, 747, 340)"></rect><rect width="285" height="5" x="332.5" y="110.5" rx="2.5" transform="rotate(40, 475, 113)"></rect><rect width="53" height="5" x="199.5" y="57.5" rx="2.5" transform="rotate(40, 226, 60)"></rect><rect width="332" height="5" x="43" y="279.5" rx="2.5" transform="rotate(40, 209, 282)"></rect><rect width="337" height="5" x="-77.5" y="34.5" rx="2.5" transform="rotate(40, 91, 37)"></rect><rect width="197" height="5" x="230.5" y="646.5" rx="2.5" transform="rotate(40, 329, 649)"></rect><rect width="384" height="5" x="17" y="743.5" rx="2.5" transform="rotate(40, 209, 746)"></rect><rect width="137" height="5" x="253.5" y="392.5" rx="2.5" transform="rotate(40, 322, 395)"></rect><rect width="238" height="5" x="479" y="742.5" rx="2.5" transform="rotate(40, 598, 745)"></rect><rect width="95" height="5" x="450.5" y="255.5" rx="2.5" transform="rotate(40, 498, 258)"></rect><rect width="511" height="5" x="487.5" y="66.5" rx="2.5" transform="rotate(40, 743, 69)"></rect><rect width="74" height="5" x="372" y="326.5" rx="2.5" transform="rotate(40, 409, 329)"></rect><rect width="329" height="5" x="-68.5" y="599.5" rx="2.5" transform="rotate(40, 96, 602)"></rect><rect width="280" height="5" x="19" y="104.5" rx="2.5" transform="rotate(40, 159, 107)"></rect><rect width="272" height="5" x="-103" y="90.5" rx="2.5" transform="rotate(40, 33, 93)"></rect><rect width="315" height="5" x="406.5" y="174.5" rx="2.5" transform="rotate(40, 564, 177)"></rect><rect width="384" height="5" x="389" y="515.5" rx="2.5" transform="rotate(40, 581, 518)"></rect><rect width="441" height="5" x="514.5" y="700.5" rx="2.5" transform="rotate(40, 735, 703)"></rect><rect width="279" height="5" x="521.5" y="432.5" rx="2.5" transform="rotate(40, 661, 435)"></rect><rect width="187" height="5" x="-51.5" y="194.5" rx="2.5" transform="rotate(40, 42, 197)"></rect><rect width="333" height="5" x="67.5" y="481.5" rx="2.5" transform="rotate(40, 234, 484)"></rect><rect width="116" height="5" x="275" y="63.5" rx="2.5" transform="rotate(40, 333, 66)"></rect><rect width="233" height="5" x="242.5" y="206.5" rx="2.5" transform="rotate(40, 359, 209)"></rect><rect width="131" height="5" x="154.5" y="609.5" rx="2.5" transform="rotate(40, 220, 612)"></rect><rect width="243" height="5" x="341.5" y="30.5" rx="2.5" transform="rotate(40, 463, 33)"></rect><rect width="407" height="5" x="193.5" y="547.5" rx="2.5" transform="rotate(40, 397, 550)"></rect><rect width="137" height="5" x="352.5" y="730.5" rx="2.5" transform="rotate(40, 421, 733)"></rect><rect width="107" height="5" x="110.5" y="385.5" rx="2.5" transform="rotate(40, 164, 388)"></rect><rect width="443" height="5" x="-159.5" y="313.5" rx="2.5" transform="rotate(40, 62, 316)"></rect><rect width="300" height="5" x="390" y="369.5" rx="2.5" transform="rotate(40, 540, 372)"></rect><rect width="364" height="5" x="439" y="56.5" rx="2.5" transform="rotate(40, 621, 59)"></rect><rect width="214" height="5" x="-44" y="473.5" rx="2.5" transform="rotate(40, 63, 476)"></rect><rect width="353" height="5" x="292.5" y="458.5" rx="2.5" transform="rotate(40, 469, 461)"></rect><rect width="301" height="5" x="564.5" y="193.5" rx="2.5" transform="rotate(40, 715, 196)"></rect><rect width="375" height="5" x="441.5" y="304.5" rx="2.5" transform="rotate(40, 629, 307)"></rect><rect width="180" height="5" x="472" y="626.5" rx="2.5" transform="rotate(40, 562, 629)"></rect><rect width="336" height="5" x="-44" y="182.5" rx="2.5" transform="rotate(40, 124, 185)"></rect><rect width="79" height="5" x="696.5" y="531.5" rx="2.5" transform="rotate(40, 736, 534)"></rect><rect width="588" height="5" x="-239" y="718.5" rx="2.5" transform="rotate(40, 55, 721)"></rect><rect width="334" height="5" x="82" y="182.5" rx="2.5" transform="rotate(40, 249, 185)"></rect></g></svg>
