<svg xmlns="http://www.w3.org/2000/svg" version="1.1" xmlns:xlink="http://www.w3.org/1999/xlink" xmlns:svgjs="http://svgjs.dev/svgjs" viewBox="0 0 800 800"><rect width="100%" height="100%" fill="#0a0a0a"></rect><g fill="#101010"><rect width="183" height="5" x="-25.5" y="43.5" rx="2.5" transform="rotate(40, 66, 46)"></rect><rect width="224" height="5" x="239" y="485.5" rx="2.5" transform="rotate(40, 351, 488)"></rect><rect width="126" height="5" x="333" y="43.5" rx="2.5" transform="rotate(40, 396, 46)"></rect><rect width="408" height="5" x="523" y="376.5" rx="2.5" transform="rotate(40, 727, 379)"></rect><rect width="52" height="5" x="325" y="137.5" rx="2.5" transform="rotate(40, 351, 140)"></rect><rect width="165" height="5" x="476.5" y="454.5" rx="2.5" transform="rotate(40, 559, 457)"></rect><rect width="442" height="5" x="268" y="249.5" rx="2.5" transform="rotate(40, 489, 252)"></rect><rect width="517" height="5" x="208.5" y="373.5" rx="2.5" transform="rotate(40, 467, 376)"></rect><rect width="586" height="5" x="296" y="331.5" rx="2.5" transform="rotate(40, 589, 334)"></rect><rect width="163" height="5" x="159.5" y="135.5" rx="2.5" transform="rotate(40, 241, 138)"></rect><rect width="74" height="5" x="104" y="115.5" rx="2.5" transform="rotate(40, 141, 118)"></rect><rect width="138" height="5" x="281" y="665.5" rx="2.5" transform="rotate(40, 350, 668)"></rect><rect width="159" height="5" x="88.5" y="571.5" rx="2.5" transform="rotate(40, 168, 574)"></rect><rect width="158" height="5" x="269" y="338.5" rx="2.5" transform="rotate(40, 348, 341)"></rect><rect width="369" height="5" x="-72.5" y="453.5" rx="2.5" transform="rotate(40, 112, 456)"></rect><rect width="98" height="5" x="134" y="348.5" rx="2.5" transform="rotate(40, 183, 351)"></rect><rect width="65" height="5" x="8.5" y="717.5" rx="2.5" transform="rotate(40, 41, 720)"></rect><rect width="481" height="5" x="221.5" y="499.5" rx="2.5" transform="rotate(40, 462, 502)"></rect><rect width="281" height="5" x="594.5" y="39.5" rx="2.5" transform="rotate(40, 735, 42)"></rect><rect width="171" height="5" x="48.5" y="242.5" rx="2.5" transform="rotate(40, 134, 245)"></rect><rect width="95" height="5" x="578.5" y="203.5" rx="2.5" transform="rotate(40, 626, 206)"></rect><rect width="228" height="5" x="256" y="232.5" rx="2.5" transform="rotate(40, 370, 235)"></rect><rect width="163" height="5" x="570.5" y="466.5" rx="2.5" transform="rotate(40, 652, 469)"></rect><rect width="154" height="5" x="551" y="597.5" rx="2.5" transform="rotate(40, 628, 600)"></rect><rect width="382" height="5" x="539" y="712.5" rx="2.5" transform="rotate(40, 730, 715)"></rect><rect width="468" height="5" x="13" y="442.5" rx="2.5" transform="rotate(40, 247, 445)"></rect><rect width="133" height="5" x="521.5" y="51.5" rx="2.5" transform="rotate(40, 588, 54)"></rect><rect width="303" height="5" x="93.5" y="736.5" rx="2.5" transform="rotate(40, 245, 739)"></rect><rect width="277" height="5" x="-105.5" y="511.5" rx="2.5" transform="rotate(40, 33, 514)"></rect><rect width="333" height="5" x="564.5" y="134.5" rx="2.5" transform="rotate(40, 731, 137)"></rect><rect width="125" height="5" x="441.5" y="130.5" rx="2.5" transform="rotate(40, 504, 133)"></rect><rect width="79" height="5" x="191.5" y="38.5" rx="2.5" transform="rotate(40, 231, 41)"></rect><rect width="115" height="5" x="187.5" y="242.5" rx="2.5" transform="rotate(40, 245, 245)"></rect><rect width="583" height="5" x="-238.5" y="329.5" rx="2.5" transform="rotate(40, 53, 332)"></rect><rect width="194" height="5" x="387" y="616.5" rx="2.5" transform="rotate(40, 484, 619)"></rect><rect width="483" height="5" x="-194.5" y="172.5" rx="2.5" transform="rotate(40, 47, 175)"></rect><rect width="315" height="5" x="-35.5" y="690.5" rx="2.5" transform="rotate(40, 122, 693)"></rect><rect width="564" height="5" x="457" y="259.5" rx="2.5" transform="rotate(40, 739, 262)"></rect><rect width="152" height="5" x="673" y="534.5" rx="2.5" transform="rotate(40, 749, 537)"></rect><rect width="470" height="5" x="314" y="737.5" rx="2.5" transform="rotate(40, 549, 740)"></rect></g></svg>
